# xmcd CD database file
# Copyright (C) 1995-1998 Ti Kan
#
# Track frame offsets:
#	150
#	14769
#	20168
#	34160
#	55076
#
# Disc length: 907 seconds
#
# Revision: 1
# Processed by: cddbd v1.4b41PL3 Copyright (c) Steve Scherf et al.
# Submitted via: CDex 1.30
#
DISCID=3e038905
DTITLE=MuStang Sally - MuStang Sally
DYEAR=2001
DGENRE=Country
TTITLE0=Oh Baby
TTITLE1=Blue Moon Intro
TTITLE2=Blue Moon of Kentucky Standard
TTITLE3=I Am Pretty
TTITLE4=Do You Want To Dance
EXTD=\nYEAR: 2001  ID3G:   2
EXTT0=
EXTT1=
EXTT2=
EXTT3=
EXTT4=
PLAYORDER=
